Coordinates
version=1
nRows=22
nColumns=24
inDegrees=yes

Units are S.I. units (second, meters, Newtons, ...)
Angles are in degrees.

endheader
time	pelvis_tilt	pelvis_list	pelvis_rotation	pelvis_tx	pelvis_ty	pelvis_tz	hip_flexion_r	hip_adduction_r	hip_rotation_r	knee_angle_r	ankle_angle_r	subtalar_angle_r	mtp_angle_r	hip_flexion_l	hip_adduction_l	hip_rotation_l	knee_angle_l	ankle_angle_l	subtalar_angle_l	mtp_angle_l	lumbar_extension	lumbar_bending	lumbar_rotation
      0.47900000	     -3.67328010	      5.04132709	     -1.67223978	     -0.79710045	      0.99990730	      0.30087658	     22.91699319	     -3.46351050	     -1.09060501	     -1.33234245	      3.21479543	     -4.57906455	      7.93844014	     -8.24745477	     10.10255748	     10.16820917	    -10.37780959	      8.33366597	    -13.90274848	      0.66268877	     -8.94031473	      3.27205449	     -7.17895246
      0.48316667	     -3.66877890	      5.00942610	     -1.69377182	     -0.79147514	      0.99926066	      0.30130628	     22.79852533	     -3.35026795	     -0.83006616	     -1.19993745	      3.00265573	     -4.46169247	      7.95907236	     -8.42657344	     10.05235956	      9.98799449	    -10.73334377	      8.44580062	    -13.58286094	      0.69877237	     -8.92986372	      3.29975123	     -7.05643026
      0.48733333	     -3.74584556	      4.98158030	     -1.72535945	     -0.78586661	      0.99849442	      0.30177062	     22.79361122	     -3.23093653	     -0.49076814	     -1.19127140	      2.74201902	     -4.49262790	      7.99624443	     -8.48510958	     10.00801888	      9.77739834	    -11.15477167	      8.58427727	    -13.22587702	      0.77465352	     -8.82448643	      3.31815205	     -6.91902086
      0.49150000	     -3.77219816	      4.90991384	     -1.77815612	     -0.78019141	      0.99783064	      0.30225814	     22.73447868	     -3.06480278	     -0.14767448	     -1.26356206	      2.44433081	     -4.53774364	      8.03908799	     -8.60372306	      9.92100317	      9.54974715	    -11.56216126	      8.66522056	    -12.89934622	      0.86994195	     -8.77708305	      3.39432933	     -6.79094292
      0.49566667	     -3.80329789	      4.84527112	     -1.82312375	     -0.77455649	      0.99715987	      0.30274831	     22.70014560	     -2.90758330	      0.22352711	     -1.43667445	      2.11338827	     -4.74238004	      8.11110025	     -8.67016733	      9.84250315	      9.27735593	    -12.07005113	      8.81669236	    -12.51185686	      1.04269787	     -8.72680270	      3.45580362	     -6.62672706
      0.49983333	     -3.81695155	      4.74708853	     -1.88907994	     -0.76885323	      0.99654733	      0.30326708	     22.64921819	     -2.71126615	      0.60241312	     -1.68170711	      1.74974252	     -4.96542450	      8.19051061	     -8.75909679	      9.73107879	      8.99329219	    -12.56535797	      8.90623224	    -12.14870077	      1.24794596	     -8.68969958	      3.56271063	     -6.46406446
      0.50400000	     -3.83053591	      4.64338538	     -1.95690705	     -0.76314699	      0.99595264	      0.30378997	     22.61315038	     -2.50880683	      0.98664330	     -2.01079123	      1.37362982	     -5.24486808	      8.28180518	     -8.81923178	      9.61815902	      8.69972209	    -13.11845748	      8.96555781	    -11.81201420	      1.50512321	     -8.65442905	      3.67672559	     -6.30170761
      0.50816667	     -3.86736836	      4.52716959	     -2.03715538	     -0.75741632	      0.99532905	      0.30433437	     22.62634406	     -2.28820444	      1.36756492	     -2.43812292	      0.98872393	     -5.56479568	      8.37105906	     -8.83401884	      9.49353989	      8.37977951	    -13.71199872	      9.00954738	    -11.47811192	      1.78649410	     -8.58926118	      3.80176149	     -6.12832240
      0.51233333	     -3.86990022	      4.39515500	     -2.11769701	     -0.75167315	      0.99479153	      0.30487887	     22.60274312	     -2.05360522	      1.74898973	     -2.90735924	      0.58409979	     -5.94480240	      8.46940352	     -8.85362265	      9.35409102	      8.03525026	    -14.36110588	      9.03724015	    -11.12804061	      2.13565977	     -8.56742104	      3.95075020	     -5.94834904
      0.51650000	     -3.88617978	      4.25648463	     -2.20737445	     -0.74592232	      0.99423925	      0.30544614	     22.61841828	     -1.80666069	      2.11213193	     -3.46353445	      0.19361059	     -6.34320440	      8.56801987	     -8.83396623	      9.20991383	      7.67627172	    -15.06167388	      9.02321630	    -10.80610995	      2.53663921	     -8.53223096	      4.10363645	     -5.76831070
      0.52066667	     -3.89358185	      4.11228239	     -2.30068367	     -0.74016431	      0.99372043	      0.30600571	     22.63977099	     -1.55504402	      2.45514952	     -4.08044504	     -0.18948034	     -6.77084879	      8.66232327	     -8.78498234	      9.06181241	      7.29037969	    -15.83297215	      8.99325127	    -10.47485150	      2.98516007	     -8.49794986	      4.27786974	     -5.58602003
      0.52483333	     -3.91239146	      3.95320670	     -2.39128379	     -0.73440781	      0.99320009	      0.30658221	     22.68496423	     -1.28603884	      2.78203288	     -4.74966490	     -0.54519153	     -7.22216978	      8.76318264	     -8.68553442	      8.89539560	      6.88672153	    -16.67699205	      8.93842159	    -10.13494543	      3.55632000	     -8.46308180	      4.45161349	     -5.39886468
      0.52900000	     -3.86810173	      3.77551601	     -2.48814751	     -0.72861640	      0.99279907	      0.30713737	     22.67041867	     -1.00421230	      3.05891096	     -5.46316284	     -0.84807887	     -7.64276223	      9.66635999	     -8.64241658	      8.71489801	      6.49682781	    -17.52280613	      8.66794860	     -9.99965915	      9.46096042	     -8.49321792	      4.69363412	     -5.32970143
      0.53316667	     -3.87762045	      3.61470345	     -2.59014534	     -0.72284934	      0.99232335	      0.30770862	     22.75367604	     -0.73318976	      3.29852833	     -6.27456870	     -1.08372953	     -8.00538487	      9.66437843	     -8.49015691	      8.54922101	      6.06942363	    -18.47418154	      8.50136180	     -9.69729203	      9.56402047	     -8.46777172	      4.87671039	     -5.07871368
      0.53733333	     -3.87436608	      3.45905392	     -2.68878566	     -0.71710368	      0.99189564	      0.30828524	     22.82508871	     -0.46795444	      3.54529630	     -7.10227641	     -1.29684172	     -8.41423922	      9.65468709	     -8.30667746	      8.38651089	      5.63615191	    -19.50020980	      8.28039544	     -9.40973537	      9.74966992	     -8.46267567	      5.05394249	     -4.91114450
      0.54150000	     -3.87492150	      3.30005809	     -2.78758507	     -0.71136838	      0.99147328	      0.30887254	     22.90972389	     -0.19895173	      3.76982422	     -7.96536535	     -1.42319301	     -8.78855081	      9.63898293	     -8.07096478	      8.21320373	      5.16056752	    -20.60874012	      8.02123481	     -9.12191907	      9.99499639	     -8.45258281	      5.23377479	     -4.75010107
      0.54566667	     -3.85793162	      3.11065984	     -2.87857868	     -0.70562323	      0.99109190	      0.30944665	     22.98427313	      0.09628760	      3.92939912	     -8.86736069	     -1.52726707	     -9.17206851	      9.60576347	     -7.81904241	      7.99749338	      4.66348151	    -21.78423292	      7.74832958	     -8.73968000	     10.42231681	     -8.46492762	      5.47507364	     -4.57002064
      0.54983333	     -3.82826878	      2.90930015	     -2.96566604	     -0.69988305	      0.99076689	      0.31006018	     23.01063217	      0.40802712	      4.14871460	     -9.71185645	     -1.57351462	     -9.64539671	      9.12981975	     -7.54338116	      7.75907260	      4.15716003	    -23.00466567	      7.25458727	     -8.56272084	     15.68218005	     -8.49900173	      5.71123682	     -4.46113934
      0.55400000	     -3.79604773	      2.74565905	     -3.05109343	     -0.69417102	      0.99044780	      0.31060813	     23.09602485	      0.66512165	      4.21638805	    -10.69104175	     -1.43079876	     -9.76154324	      9.11628722	     -7.23047701	      7.56125765	      3.66607210	    -24.29011192	      6.78704020	     -8.25560433	     15.79823006	     -8.53216530	      5.90209353	     -4.30044116
      0.55816667	     -3.76944473	      2.56179991	     -3.12653775	     -0.68848143	      0.99013674	      0.31118292	     23.16476765	      0.94539085	      4.30681103	    -11.63543099	     -1.27747425	    -10.00008721	      9.08529322	     -6.85913062	      7.32306038	      3.13914181	    -25.66555593	      6.26888607	     -7.92892484	     16.01704342	     -8.56396947	      6.11973840	     -4.15935185
      0.56233333	     -3.74351454	      2.36583831	     -3.18950198	     -0.68279540	      0.98985868	      0.31175559	     23.22105178	      1.23281171	      4.37407086	    -12.56482714	     -1.06171418	    -10.21253070	      9.03436977	     -6.45095494	      7.05453526	      2.60063315	    -27.09554650	      5.70181207	     -7.56693272	     16.36227706	     -8.59891730	      6.35023187	     -4.02549616
      0.56650000	     -3.69272242	      2.16981875	     -3.24831189	     -0.67714051	      0.98963131	      0.31233575	     23.24603047	      1.51507481	      4.41706688	    -13.49084675	     -0.76554816	    -10.36473993	      8.95753564	     -6.03134499	      6.77283980	      2.06024519	    -28.57889934	      5.02118902	     -7.21001091	     16.86301416	     -8.66929640	      6.57051530	     -3.89768373
